<?xml version="1.0" encoding="UTF-8"?><svg id="a" xmlns="http://www.w3.org/2000/svg" xmlns:xlink="http://www.w3.org/1999/xlink" viewBox="0 0 512 512"><defs><radialGradient id="b" cx="-7896.96" cy="-9813.31" fx="-7896.96" fy="-9813.31" r="80.8" gradientTransform="translate(49396.42 60903.6) scale(6.2)" gradientUnits="userSpaceOnUse"><stop offset=".11" stop-color="#3fe1b0"/><stop offset=".12" stop-color="#3bdcb3"/><stop offset=".25" stop-color="#1bb3d2"/><stop offset=".36" stop-color="#0799e5"/><stop offset=".42" stop-color="#0090ed"/><stop offset=".49" stop-color="#2382f1"/><stop offset=".64" stop-color="#7164fb"/><stop offset=".71" stop-color="#9059ff"/><stop offset=".8" stop-color="#7d49ed"/><stop offset=".86" stop-color="#7542e5"/></radialGradient><radialGradient id="d" cx="-7926.48" cy="-9780.28" fx="-7926.48" fy="-9780.28" r="80.8" gradientTransform="translate(49396.42 60903.6) scale(6.2)" gradientUnits="userSpaceOnUse"><stop offset=".3" stop-color="#45278d"/><stop offset=".34" stop-color="#562796" stop-opacity=".79"/><stop offset=".43" stop-color="#7729a8" stop-opacity=".36"/><stop offset=".5" stop-color="#8c2ab4" stop-opacity=".1"/><stop offset=".53" stop-color="#952bb9" stop-opacity="0"/></radialGradient><radialGradient id="f" cx="-7905.75" cy="-9834.17" fx="-7905.75" fy="-9834.17" r="118.08" gradientTransform="translate(49396.42 60903.6) scale(6.2)" gradientUnits="userSpaceOnUse"><stop offset=".13" stop-color="#3fe1b0"/><stop offset=".43" stop-color="#0df"/><stop offset=".48" stop-color="#1ec1ff"/><stop offset=".62" stop-color="#6f76ff"/><stop offset=".69" stop-color="#9059ff"/><stop offset=".9" stop-color="#b833e1"/></radialGradient><radialGradient id="h" cx="-7908.69" cy="-9802.05" fx="-7908.69" fy="-9802.05" r="80.69" gradientTransform="translate(49396.42 60903.6) scale(6.2)" gradientUnits="userSpaceOnUse"><stop offset=".09" stop-color="#54ffbd"/><stop offset=".24" stop-color="#40f7cc"/><stop offset=".54" stop-color="#0ee2f3"/><stop offset=".63" stop-color="#0df"/></radialGradient><linearGradient id="j" x1="442.08" y1="80.77" x2="102.65" y2="420.21" gradientUnits="userSpaceOnUse"><stop offset=".17" stop-color="#54ffbd" stop-opacity=".8"/><stop offset=".24" stop-color="#43f8ca" stop-opacity=".64"/><stop offset=".36" stop-color="#26ece0" stop-opacity=".37"/><stop offset=".47" stop-color="#11e4f1" stop-opacity=".17"/><stop offset=".54" stop-color="#04defb" stop-opacity=".05"/><stop offset=".59" stop-color="#0df" stop-opacity="0"/></linearGradient></defs><path id="c" d="M478.71,172.35c-10.45-25.12-31.6-52.25-48.21-60.82,13.52,26.5,21.35,53.09,24.34,72.94,0-.06.01.05.04.23.01.09.03.17.04.26,22.68,61.47,10.32,123.98-7.48,162.17-27.54,59.1-94.22,119.67-198.58,116.72-112.76-3.19-212.09-86.86-230.63-196.43-3.38-17.28,0-26.05,1.7-40.08-2.07,10.82-2.86,13.94-3.9,33.16,0,.41-.03.82-.03,1.23,0,132.71,107.6,240.29,240.32,240.29,118.86,0,217.56-86.29,236.88-199.63.41-3.08.73-6.17,1.09-9.27,4.78-41.21-.53-84.53-15.59-120.75Z" fill="url(#b)"/><path id="e" d="M478.71,172.35c-10.45-25.12-31.6-52.25-48.21-60.82,13.52,26.5,21.35,53.09,24.34,72.94,0-.06.01.05.04.23.01.09.03.17.04.26,22.68,61.47,10.32,123.98-7.48,162.17-27.54,59.1-94.22,119.67-198.58,116.72-112.76-3.19-212.09-86.86-230.63-196.43-3.38-17.28,0-26.05,1.7-40.08-2.07,10.82-2.86,13.94-3.9,33.16,0,.41-.03.82-.03,1.23,0,132.71,107.6,240.29,240.32,240.29,118.86,0,217.56-86.29,236.88-199.63.41-3.08.73-6.17,1.09-9.27,4.78-41.21-.53-84.53-15.59-120.75Z" fill="url(#d)"/><path id="g" d="M18.22,267.41c18.54,109.58,117.87,193.24,230.63,196.43,104.36,2.95,171.04-57.62,198.58-116.72,17.8-38.2,30.15-100.7,7.48-162.17,0,0,0-.02,0-.03-.01-.08-.02-.16-.03-.23-.02-.18-.04-.28-.04-.23,0,.04.01.14.05.4,8.52,55.66-19.79,109.58-64.05,146.04-.08.19-.13.31-.13.31-86.25,70.22-168.77,42.37-185.48,30.97-1.17-.56-2.33-1.14-3.5-1.74-50.28-24.03-71.05-69.84-66.6-109.12-42.46,0-56.93-35.81-56.93-35.81,0,0,38.12-27.18,88.36-3.54,46.53,21.89,90.23,3.54,90.23,3.54-.09-1.95-41.92-18.59-58.22-34.66-8.71-8.58-12.85-12.72-16.51-15.83-1.99-1.69-3.86-3.08-6.22-4.7-1.43-.97-3.03-2.03-4.98-3.3-17.53-11.39-52.39-10.76-53.54-10.73-.02,0-.11,0-.11,0-9.53-12.07-8.86-51.87-8.31-60.18-.11-.52-7.11,3.63-8.02,4.25-5.96,4.17-14.32,10.85-23.49,20.12-7.26,7.34-15.01,16.33-22.44,26.91,0,.01,0,.03-.01.04,0-.01,0-.03.01-.04-13.36,19.01-25.68,43.24-32.25,72.81-.12.52-8.65,37.84-4.44,57.2Z" fill="url(#f)"/><path id="i" d="M148.44,283.44s11.09-41.34,79.43-41.34c7.39,0,28.51-20.61,28.9-26.59h0s0,0,0,0c0,0-43.7,18.35-90.23-3.54-50.24-23.64-88.36,3.54-88.36,3.54,0,0,14.48,35.81,56.93,35.81-4.45,39.29,16.32,85.09,66.6,109.12,1.12.54,2.18,1.12,3.33,1.64-29.35-15.17-53.58-43.83-56.61-78.64Z" fill="url(#h)"/><path d="M494.4,234.71c-.29-2.57-.61-5.14-.98-7.69-.73-5.11-1.62-10.17-2.65-15.17-2.86-13.75-6.88-27.04-12.06-39.49-6.85-16.49-18.32-33.84-30.09-46.24-3.36-3.54-6.75-6.68-10.06-9.28-1.1-.87-2.2-1.67-3.28-2.42-1.62-1.11-3.22-2.08-4.78-2.88.85,1.66,1.67,3.31,2.47,4.97,8.81,18.21,14.95,36.26,18.7,51.93.68,2.85,1.29,5.62,1.81,8.3s.98,5.26,1.35,7.74c0,.02,0,.05.01.12,0,.06.02.15.03.28,8.52,55.66-19.79,109.58-64.05,146.04-.08.19-.13.31-.13.31-86.25,70.22-168.77,42.37-185.48,30.97-.57-.27-1.14-.57-1.7-.85,0,0,0,0,0,0,0,0,0,0,0,0,.23.12.47.23.71.34.27.13.54.27.83.4-8.25-4.27-16.1-9.6-23.19-15.84-1.57-1.39-3.11-2.82-4.61-4.29-4.49-4.42-8.6-9.23-12.23-14.37-.61-.86-1.2-1.72-1.78-2.6-2.89-4.38-5.44-8.99-7.57-13.79-.43-.96-.84-1.93-1.23-2.91-3.16-7.82-5.24-16.14-6-24.84h0s.88-3.27,3.66-7.97c.15-.26.31-.53.48-.8.67-1.08,1.43-2.22,2.3-3.41,1.09-1.49,2.35-3.04,3.79-4.63,1.16-1.27,2.44-2.56,3.85-3.85,1.41-1.29,2.96-2.58,4.66-3.85,2.12-1.59,4.46-3.15,7.05-4.63,2.07-1.19,4.3-2.33,6.7-3.41.6-.27,1.21-.54,1.83-.8,11.19-4.7,25.88-7.97,45.1-7.97,3.69,0,10.82-5.15,17.07-11.05,4.3-4.06,8.18-8.47,10.26-11.8.94-1.51,1.51-2.81,1.57-3.74h0s0,0,0,0h0s0,0,0,0h0c-.09-1.96-41.92-18.59-58.22-34.66-8.71-8.58-12.85-12.72-16.51-15.83-1.74-1.48-3.41-2.74-5.38-4.11-.28-.2-.55-.39-.85-.59-1.43-.97-3.03-2.03-4.98-3.3-17.53-11.39-52.39-10.76-53.54-10.73-.01,0-.04,0-.06,0s-.05,0-.05,0c-.89-1.13-1.7-2.51-2.42-4.08-.48-1.05-.93-2.18-1.34-3.39-3.09-9.04-4.29-22.15-4.67-33.21-.03-.74-.05-1.47-.07-2.18-.04-1.44-.06-2.83-.07-4.16-.01-1.33-.01-2.61,0-3.81.02-4.21.15-7.54.27-9.36-.07-.32-2.83,1.18-5.11,2.5-.46.26-.89.52-1.29.76-.79.47-1.4.84-1.62,1-1.12.78-2.32,1.65-3.59,2.61s-2.63,2.01-4.04,3.14c-4.71,3.79-10.12,8.57-15.85,14.37-2.72,2.75-5.52,5.74-8.33,8.95-.94,1.07-1.88,2.17-2.83,3.29-3.77,4.49-7.57,9.38-11.29,14.67,0,.01,0,.03-.01.04,0-.01,0-.03.01-.04-3.34,4.75-6.61,9.83-9.75,15.24-2.35,4.05-4.63,8.29-6.79,12.72-1.44,2.95-2.84,5.98-4.18,9.1-3.34,7.79-6.33,16.09-8.81,24.91-.99,3.53-1.9,7.14-2.72,10.84h0c-.11.52-.21,1.06-.32,1.59-.45,2.12-2.49,12.85-2.77,15.16-.01.08,0,.05,0,0-.2,1.17-.39,2.36-.58,3.57-.27,1.91-.53,3.88-.77,5.89-.15.9-.29,1.81-.43,2.75-.5,4.13-.92,8.35-1.25,12.57-.17,2.51-.35,5.37-.53,8.74,0,.41-.03.82-.03,1.23,0,80.87,39.95,152.41,101.2,195.96,1.57,1.12,3.15,2.22,4.75,3.29,11.19,7.56,23.04,14.2,35.47,19.81,1.77.8,3.56,1.58,5.36,2.34,7.19,3.04,14.55,5.74,22.08,8.08,1.88.59,3.77,1.15,5.67,1.69,5.7,1.62,11.49,3.03,17.36,4.23,15.64,3.2,31.84,4.88,48.43,4.88,35.29,0,68.8-7.6,98.98-21.27,3.18-1.44,6.32-2.94,9.42-4.51,6.2-3.14,12.25-6.54,18.13-10.19,22.05-13.68,41.72-30.83,58.25-50.69,2.2-2.65,4.35-5.34,6.44-8.09,23-30.16,39.02-65.93,45.66-104.89.2-1.54.39-3.08.56-4.62.18-1.55.35-3.09.53-4.65.45-3.86.81-7.75,1.08-11.64,1.08-15.57.75-31.32-.97-46.75ZM454.91,184.95s0-.02,0-.03c-.01-.08-.02-.16-.03-.23,0,0,0,0,0,0,0,0,0,0,0,0,.01.09.03.17.04.26h0ZM17.59,242.77c-.65,7.69-.8,15.49.14,21.86-1.43-8.81-1.04-15.39-.14-21.86Z" fill="url(#j)"/></svg>