<svg width="24" height="24" viewBox="0 0 24 24" fill="none" xmlns="http://www.w3.org/2000/svg">
<path fill-rule="evenodd" clip-rule="evenodd" d="M10.8 16.4C11.5111 15.8667 12.4889 15.8667 13.2 16.4L16.4 18.8C17.0592 19.2944 18 18.824 18 18V5C18 4.44772 17.5523 4 17 4H7C6.44772 4 6 4.44772 6 5V18C6 18.824 6.94076 19.2944 7.6 18.8L10.8 16.4ZM12 18L15.2 20.4C17.1777 21.8833 20 20.4721 20 18V5C20 3.34315 18.6569 2 17 2H7C5.34315 2 4 3.34315 4 5V18C4 20.4721 6.82229 21.8833 8.8 20.4L12 18Z" fill="black"/>
<path d="M13 7C13 6.44772 12.5523 6 12 6C11.4477 6 11 6.44772 11 7L11 9H9C8.44772 9 8 9.44772 8 10C8 10.5523 8.44772 11 9 11H11L11 13C11 13.5523 11.4477 14 12 14C12.5523 14 13 13.5523 13 13L13 11H15C15.5523 11 16 10.5523 16 10C16 9.44772 15.5523 9 15 9H13L13 7Z" fill="black"/>
</svg>
