<?xml version="1.0" encoding="UTF-8"?>
<svg id="a" data-name="Layer 1" xmlns="http://www.w3.org/2000/svg" width="512" height="512" xmlns:xlink="http://www.w3.org/1999/xlink" viewBox="0 0 512 512">
  <defs>
    <linearGradient id="b" x1="280.371" y1="383.927" x2="499.809" y2="476.777" gradientUnits="userSpaceOnUse">
      <stop offset=".001" stop-color="#54ffbd"/>
      <stop offset="1" stop-color="#0df"/>
    </linearGradient>
  </defs>
  <path d="M484.634,373.61h-161.445c-38.212,0-69.189,30.977-69.189,69.189v33.835c0,5.173,4.193,9.366,9.366,9.366h161.445c38.212,0,69.189-30.977,69.189-69.189v-52.567c0,5.173-4.193,9.366-9.366,9.366Z" fill="url(#b)"/>
  <path d="M326.241,429.168c3.439-1.973,5.349-5.157,5.349-9.424,0-8.342-5.795-12.991-16.11-12.991h-19.232v46.486h19.359c10.315,0,16.684-4.584,16.684-13.755,0-4.84-2.165-8.342-6.05-10.316ZM305.099,414.713h10.571c4.712,0,6.941,1.974,6.941,5.222,0,3.184-2.038,5.54-6.813,5.54h-10.699v-10.762ZM315.734,445.152h-10.635v-11.59h10.253c5.667,0,7.833,2.102,7.833,5.731s-2.547,5.858-7.451,5.858ZM340.884,453.239h31.266v-8.532h-22.288v-10.572h22.288v-8.469h-22.288v-10.444h22.288v-8.469h-31.266v46.486ZM414.432,406.753h-34.578v8.279h12.927v38.208h8.851v-38.208h12.8v-8.279ZM438.501,406.753h-8.852l-17.575,46.486h9.234l3.056-8.469h19.422l3.057,8.469h9.234l-17.575-46.486ZM427.357,436.619l6.75-18.467,6.686,18.467h-13.436Z" fill="#20123a"/>
</svg>