<?xml version="1.0" encoding="UTF-8"?><svg id="a" xmlns="http://www.w3.org/2000/svg" xmlns:xlink="http://www.w3.org/1999/xlink" viewBox="0 0 512 512"><defs><radialGradient id="b" cx="-8343.16" cy="-9297.51" fx="-8343.16" fy="-9297.51" r="80.8" gradientTransform="translate(52163.28 57705.6) scale(6.2)" gradientUnits="userSpaceOnUse"><stop offset=".13" stop-color="#ffbd4f"/><stop offset=".19" stop-color="#ffab30"/><stop offset=".25" stop-color="#ff9d17"/><stop offset=".28" stop-color="#ff980e"/><stop offset=".4" stop-color="#ff553b"/><stop offset=".47" stop-color="#ff3750"/><stop offset=".71" stop-color="#f5156c"/><stop offset=".78" stop-color="#eb0877"/><stop offset=".86" stop-color="#e50080"/></radialGradient><radialGradient id="d" cx="-8372.69" cy="-9264.48" fx="-8372.69" fy="-9264.48" r="80.8" gradientTransform="translate(52163.28 57705.6) scale(6.2)" gradientUnits="userSpaceOnUse"><stop offset=".3" stop-color="#960e18"/><stop offset=".35" stop-color="#b11826" stop-opacity=".74"/><stop offset=".43" stop-color="#db283c" stop-opacity=".34"/><stop offset=".5" stop-color="#f5334a" stop-opacity=".09"/><stop offset=".53" stop-color="#ff3750" stop-opacity="0"/></radialGradient><radialGradient id="f" cx="-8373.71" cy="-9300.81" fx="-8373.71" fy="-9300.81" r="27.68" gradientTransform="translate(52163.28 57705.6) scale(6.2)" gradientUnits="userSpaceOnUse"><stop offset="0" stop-color="#ffe226"/><stop offset=".12" stop-color="#ffdb27"/><stop offset=".3" stop-color="#ffc82a"/><stop offset=".5" stop-color="#ffa82f"/><stop offset=".73" stop-color="#ff7d36"/><stop offset=".79" stop-color="#ff7139"/></radialGradient><radialGradient id="h" cx="-8351.95" cy="-9318.37" fx="-8351.95" fy="-9318.37" r="118.08" gradientTransform="translate(52163.28 57705.6) scale(6.2)" gradientUnits="userSpaceOnUse"><stop offset=".11" stop-color="#fff44f"/><stop offset=".46" stop-color="#ff980e"/><stop offset=".62" stop-color="#ff5634"/><stop offset=".72" stop-color="#ff3647"/><stop offset=".9" stop-color="#e31587"/></radialGradient><radialGradient id="j" cx="-8374.36" cy="-9290.56" fx="-8374.36" fy="-9290.56" r="73.72" gradientTransform="translate(52163.28 57705.6) scale(6.2)" gradientUnits="userSpaceOnUse"><stop offset=".14" stop-color="#fff44f"/><stop offset=".48" stop-color="#ff980e"/><stop offset=".59" stop-color="#ff5634"/><stop offset=".66" stop-color="#ff3647"/><stop offset=".9" stop-color="#e31587"/></radialGradient><radialGradient id="l" cx="-8354.9" cy="-9286.25" fx="-8354.9" fy="-9286.25" r="80.69" gradientTransform="translate(52163.28 57705.6) scale(6.2)" gradientUnits="userSpaceOnUse"><stop offset=".09" stop-color="#fff44f"/><stop offset=".23" stop-color="#ffe041"/><stop offset=".51" stop-color="#ffae1e"/><stop offset=".63" stop-color="#ff980e"/></radialGradient><linearGradient id="n" x1="442.08" y1="80.77" x2="102.65" y2="420.21" gradientUnits="userSpaceOnUse"><stop offset=".17" stop-color="#fff44f" stop-opacity=".8"/><stop offset=".27" stop-color="#fff44f" stop-opacity=".63"/><stop offset=".49" stop-color="#fff44f" stop-opacity=".22"/><stop offset=".6" stop-color="#fff44f" stop-opacity="0"/></linearGradient></defs><path id="c" d="M478.71,172.35c-10.45-25.12-31.6-52.25-48.21-60.82,13.52,26.5,21.35,53.09,24.34,72.94,0-.06.01.05.04.23.01.09.03.17.04.26,22.68,61.47,10.32,123.98-7.48,162.17-27.54,59.1-94.22,119.67-198.58,116.72-112.76-3.19-212.09-86.86-230.63-196.43-3.38-17.28,0-26.05,1.7-40.08-2.07,10.82-2.86,13.94-3.9,33.16,0,.41-.03.82-.03,1.23,0,132.71,107.6,240.29,240.32,240.29,118.86,0,217.56-86.29,236.88-199.63.41-3.08.73-6.17,1.09-9.27,4.78-41.21-.53-84.53-15.59-120.75Z" fill="url(#b)"/><path id="e" d="M478.71,172.35c-10.45-25.12-31.6-52.25-48.21-60.82,13.52,26.5,21.35,53.09,24.34,72.94,0-.06.01.05.04.23.01.09.03.17.04.26,22.68,61.47,10.32,123.98-7.48,162.17-27.54,59.1-94.22,119.67-198.58,116.72-112.76-3.19-212.09-86.86-230.63-196.43-3.38-17.28,0-26.05,1.7-40.08-2.07,10.82-2.86,13.94-3.9,33.16,0,.41-.03.82-.03,1.23,0,132.71,107.6,240.29,240.32,240.29,118.86,0,217.56-86.29,236.88-199.63.41-3.08.73-6.17,1.09-9.27,4.78-41.21-.53-84.53-15.59-120.75Z" fill="url(#d)"/><path id="g" d="M170.83,157.04c1.95,1.27,3.55,2.32,4.98,3.3-9.22-31.15-.67-58.73-.67-58.73-24.69,11.24-43.89,29.01-57.85,44.7,1.15-.03,36.01-.66,53.54,10.73Z" fill="url(#f)"/><path id="i" d="M18.22,267.41c18.54,109.58,117.87,193.24,230.63,196.43,104.36,2.95,171.04-57.62,198.58-116.72,17.8-38.2,30.15-100.7,7.48-162.17,0,0,0-.02,0-.03-.01-.08-.02-.16-.03-.23-.02-.18-.04-.28-.04-.23,0,.04.01.14.05.4,8.52,55.66-19.79,109.58-64.05,146.04-.08.19-.13.31-.13.31-86.25,70.22-168.77,42.37-185.48,30.97-1.17-.56-2.33-1.14-3.5-1.74-50.28-24.03-71.05-69.84-66.6-109.12-42.46,0-56.93-35.81-56.93-35.81,0,0,38.12-27.18,88.36-3.54,46.53,21.89,90.23,3.54,90.23,3.54-.09-1.95-41.92-18.59-58.22-34.66-8.71-8.58-12.85-12.72-16.51-15.83-1.99-1.69-3.86-3.08-6.22-4.7-1.43-.97-3.03-2.03-4.98-3.3-17.53-11.39-52.39-10.76-53.54-10.73-.02,0-.11,0-.11,0-9.53-12.07-8.86-51.87-8.31-60.18-.11-.52-7.11,3.63-8.02,4.25-5.96,4.17-14.32,10.85-23.49,20.12-7.26,7.34-15.01,16.33-22.44,26.91,0,.01,0,.03-.01.04,0-.01,0-.03.01-.04-13.36,19.01-25.68,43.24-32.25,72.81-.12.52-8.65,37.84-4.44,57.2Z" fill="url(#h)"/><path id="k" d="M367.02,204.65c-1.05-.97-2.28-1.96-3.61-2.95-.49-.37-.97-.73-1.49-1.1-12.83-9.01-35.81-17.92-57.95-14.07,86.44,43.21,63.23,192.03-56.55,186.41-10.42-.49-21-2.33-31.27-6.03-2.35-.88-4.7-1.85-7.06-2.89-1.36-.62-2.71-1.24-4.05-1.94.05.03.11.07.16.1,16.71,11.4,99.24,39.26,185.48-30.97,0,0,.05-.12.13-.31,2.13-5.06,30.67-76.06-23.81-126.26Z" fill="url(#j)"/><path id="m" d="M148.44,283.44s11.09-41.34,79.43-41.34c7.39,0,28.51-20.61,28.9-26.59h0s0,0,0,0c0,0-43.7,18.35-90.23-3.54-50.24-23.64-88.36,3.54-88.36,3.54,0,0,14.48,35.81,56.93,35.81-4.45,39.29,16.32,85.09,66.6,109.12,1.12.54,2.18,1.12,3.33,1.64-29.35-15.17-53.58-43.83-56.61-78.64Z" fill="url(#l)"/><path d="M478.71,172.35c-10.45-25.12-31.6-52.25-48.21-60.82,13.52,26.5,21.35,53.09,24.34,72.94,0,.04.01.14.05.4,8.52,55.66-19.79,109.58-64.05,146.04,2.13-5.06,30.67-76.06-23.81-126.26-1.05-.97-2.28-1.96-3.61-2.95-.49-.37-.97-.73-1.49-1.1-12.83-9.01-35.81-17.92-57.95-14.07,86.44,43.21,63.23,192.03-56.55,186.41-10.42-.49-21-2.33-31.27-6.03-2.35-.88-4.7-1.85-7.06-2.89-1.36-.62-2.71-1.24-4.05-1.94.05.03.11.07.16.1-.57-.27-1.13-.57-1.7-.85,0,0,0,0,0,0,0,0,0,0,0,0,.5.25,1.01.51,1.54.74-29.35-15.17-53.58-43.83-56.61-78.64,0,0,11.09-41.34,79.43-41.34,7.39,0,28.51-20.61,28.9-26.59h0s0,0,0,0c-.09-1.95-41.92-18.59-58.22-34.66-8.71-8.58-12.85-12.72-16.51-15.83-1.99-1.69-3.86-3.08-6.22-4.7-9.22-31.15-.67-58.73-.67-58.73-24.69,11.24-43.89,29.01-57.85,44.7-.02,0-.11,0-.11,0-9.53-12.07-8.86-51.87-8.31-60.18-.11-.52-7.11,3.63-8.02,4.25-5.96,4.17-14.32,10.85-23.49,20.12-7.26,7.34-15.01,16.33-22.44,26.91,0,.01,0,.03-.01.04,0-.01,0-.03.01-.04-13.36,19.01-25.68,43.24-32.25,72.81-.12.52-.21,1.06-.32,1.59-.45,2.12-2.49,12.85-2.77,15.16-.01.08,0,.05,0,0-.2,1.17-.39,2.37-.58,3.57-.27,1.9-.53,3.88-.77,5.89-.15.9-.29,1.81-.43,2.75-.5,4.13-.92,8.35-1.25,12.57-.17,2.51-.35,5.37-.53,8.74,0,.41-.03.82-.03,1.23,0,29.03,5.15,56.86,14.58,82.62,1.35,3.68,2.78,7.32,4.3,10.91,1.52,3.59,3.13,7.14,4.81,10.64,3.38,7,7.08,13.82,11.09,20.42,2.01,3.3,4.09,6.55,6.25,9.75,3.24,4.79,6.65,9.46,10.21,14,1.19,1.51,2.4,3.01,3.62,4.49,15.92,19.28,34.79,36.04,55.91,49.59,1.63,1.04,3.26,2.06,4.92,3.07,36.34,22.08,78.99,34.79,124.62,34.79,27.86,0,54.61-4.74,79.49-13.46,1.66-.58,3.31-1.18,4.95-1.8,39.4-14.79,73.89-39.63,100.34-71.4,6.61-7.94,12.72-16.32,18.28-25.08,1.85-2.92,3.64-5.88,5.37-8.89,13.83-24.03,23.62-50.67,28.45-79.01.41-3.08.73-6.17,1.09-9.27,4.78-41.21-.53-84.53-15.59-120.75ZM454.9,184.93c-.01-.08-.02-.16-.03-.23.01.09.03.17.04.26,0,0,0-.02,0-.03ZM17.59,242.77c-.65,7.69-.8,15.49.14,21.86-1.43-8.81-1.04-15.39-.14-21.86Z" fill="url(#n)"/></svg>