<?xml version="1.0" encoding="UTF-8"?><svg id="a" xmlns="http://www.w3.org/2000/svg" xmlns:xlink="http://www.w3.org/1999/xlink" viewBox="0 0 512 512"><defs><clipPath id="b"><path d="M248.63,153.15c.09,1.72.22,3.42.38,5.11.63,6.74,1.77,13.23,3.24,19.55.37,1.58.76,3.15,1.16,4.71,2.43,9.37,5.51,18.44,8.64,27.53,7.02,20.4,8.63,17.68,16.12,37.97,4.85,13.14,9.64,26.22,12.86,39.37.74,3.04,1.4,6.08,1.95,9.12.18,1.02.36,2.03.52,3.05.97,6.1,1.5,12.22,1.45,18.38-.05,6.16-.69,12.35-2.06,18.59-.46,2.08-1,4.17-1.62,6.26-.31,1.05-.65,2.09-1.01,3.14-6.74,19.77-19.23,33.44-27.34,40.8,38.46,1.78,89.51-8.06,141.8-50.29,0,0,.06-.14.15-.34,28-22.88,50.21-52.04,62.31-84.24,0-.2,0-.41-.01-.62-.12-3.97-.35-7.79-.67-11.45-.31-3.65-.71-7.14-1.15-10.45-.3-2.2-.62-4.33-.96-6.36-.34-2.04-.7-3.99-1.07-5.85-1.47-7.44-3.09-13.45-4.37-17.71-.16-.53-.32-1.04-.46-1.52-.24-.78-.46-1.46-.67-2.09-.17-.53-.34-1.03-.48-1.45-.44-1.29-.88-2.55-1.33-3.8-.2-.54-.39-1.08-.59-1.61h0c-.99-2.67-2-5.25-3.05-7.73-2.9-6.89-6.01-13.12-9.21-18.84-5.11-9.17-10.43-17.05-15.46-24.31-7.89-11.39-15.12-20.23-22.26-28.32-1.3-1.47-2.59-2.92-3.89-4.35-3.24-3.59-6.48-7.09-9.78-10.67-5.28-5.74-10.7-11.69-16.49-18.55-4.34-5.15-8.89-10.81-13.73-17.27-2.77-3.69-5.39-7.27-7.86-10.73-1.65-2.31-3.23-4.56-4.73-6.76-3.76-5.51-7.07-10.68-9.84-15.51-1.11-1.93-2.13-3.81-3.06-5.63-.93-1.82-1.77-3.59-2.52-5.3-.75-1.71-1.39-3.36-1.94-4.96-.65.37-1.31.76-1.98,1.15-1.34.79-2.71,1.64-4.12,2.53-.71.45-1.42.91-2.14,1.38-4.33,2.84-8.93,6.14-13.66,9.99-4.73,3.85-9.58,8.23-14.39,13.22-3.92,4.06-20.05,21.21-32.5,48.92-1.98,4.41-4.34,9.65-6.56,15.82-.64,1.76-1.26,3.6-1.86,5.51-.6,1.91-1.18,3.91-1.73,5.98-.54,2.07-1.06,4.22-1.52,6.46-.23,1.12-.45,2.25-.66,3.41-.42,2.31-.78,4.71-1.08,7.19-.34,2.83-.58,5.6-.73,8.33-.05.91-.09,1.81-.12,2.71-.03.9-.05,1.79-.06,2.68-.02,1.78,0,3.53.06,5.27.03.87.07,1.73.11,2.59Z" fill="none"/></clipPath><radialGradient id="c" cx="372.68" cy="-18.47" fx="372.68" fy="-18.47" r="727.72" gradientTransform="translate(7.99 -.89)" gradientUnits="userSpaceOnUse"><stop offset=".05" stop-color="#fff44f"/><stop offset=".11" stop-color="#ffe846"/><stop offset=".22" stop-color="#ffc830"/><stop offset=".36" stop-color="#ff980e"/><stop offset=".39" stop-color="#ff8a15"/><stop offset=".46" stop-color="#ff672a"/><stop offset=".53" stop-color="#ff3647"/><stop offset=".7" stop-color="#e31587"/></radialGradient><radialGradient id="d" cx="292.92" cy="19.13" fx="292.92" fy="19.13" r="510.72" gradientTransform="translate(284.76 -274.13) rotate(83.95) scale(1 .66) skewX(-.06)" gradientUnits="userSpaceOnUse"><stop offset="0" stop-color="#fff44f"/><stop offset=".06" stop-color="#ffe846"/><stop offset=".17" stop-color="#ffc830"/><stop offset=".3" stop-color="#ff980e"/><stop offset=".36" stop-color="#ff8a15"/><stop offset=".45" stop-color="#ff672a"/><stop offset=".57" stop-color="#ff3647"/><stop offset=".74" stop-color="#e31587" stop-opacity="0"/></radialGradient><radialGradient id="e" cx="329.3" cy="-73.85" fx="329.3" fy="-73.85" r="432.61" gradientTransform="translate(7.99 -.89)" gradientUnits="userSpaceOnUse"><stop offset=".13" stop-color="#fff44f"/><stop offset=".25" stop-color="#ffdb3d"/><stop offset=".5" stop-color="#ff9d11"/><stop offset=".52" stop-color="#ff980e"/><stop offset=".52" stop-color="#ff980e" stop-opacity=".99"/><stop offset=".6" stop-color="#ff980e" stop-opacity=".73"/><stop offset=".68" stop-color="#ff980e" stop-opacity=".51"/><stop offset=".75" stop-color="#ff980e" stop-opacity=".33"/><stop offset=".83" stop-color="#ff980e" stop-opacity=".18"/><stop offset=".89" stop-color="#ff980e" stop-opacity=".08"/><stop offset=".95" stop-color="#ff980e" stop-opacity=".02"/><stop offset="1" stop-color="#ff980e" stop-opacity="0"/></radialGradient><linearGradient id="f" x1="466" y1="106.75" x2="126.08" y2="446.67" gradientUnits="userSpaceOnUse"><stop offset=".17" stop-color="#fff44f" stop-opacity=".8"/><stop offset=".27" stop-color="#fff44f" stop-opacity=".63"/><stop offset=".49" stop-color="#fff44f" stop-opacity=".22"/><stop offset=".6" stop-color="#fff44f" stop-opacity="0"/></linearGradient></defs><g clip-path="url(#b)"><polygon points="256.77 217.81 256.77 217.81 256.77 217.81 256.77 217.81" fill="#ff4aa2"/><polygon points="256.77 217.81 256.77 217.81 256.77 217.81 256.77 217.81" fill="#ff4aa2"/><path d="M126.88,427.12c40.95-2.37,72.24-10.44,92.86-17.26,17.84-5.89,28.31-11.04,38.28-18.98,6.76-5.39,23.9-20.51,32.23-44.96,11.44-33.56-.15-65.58-12.09-97.91-7.49-20.28-9.1-17.57-16.12-37.97-8.34-24.24-16.34-48.31-12.68-78.47,2.41-19.86,8.88-34.29,13.41-44.37,12.45-27.71,28.58-44.86,32.5-48.92,12.84-13.31,25.92-22.32,36.29-28.28,4.39,12.76,15.21,29.2,29.96,48.89,25.82,34.48,43.21,46.05,66.16,79.17,10.05,14.51,21.3,31.55,29.64,56.3,3.3,9.78,15.89,49.79,6.55,101.03-11.15,61.18-46.36,98.8-53.28,105.99-6.62,6.87-37.67,38.1-89.99,53.99-44.84,13.62-81.82,8.85-98.36,6.53-44.53-6.24-77.3-23.48-95.35-34.78Z" fill="url(#c)"/><path d="M126.88,427.12c8.75.53,21.74,1.09,37.46.84,56.62-.9,151.99-2.41,203.2-61.55,6.9-7.97,24.44-28.75,30.22-60.71,3.59-19.85,1.32-36.66-1-47.24-7.22-21.22-16.29-35.07-23.48-43.95-4.69-5.79-21.69-25.63-29.82-34.6-.57-.62-2.31-2.53-4.53-5.21-3.69-4.44-6.38-8.22-8.57-11.29-20.62-28.92-25.34-51.44-25.34-51.44s-8.53-37.13,7.39-72.67c4.42-9.88,10.46-18.46,10.46-18.46,3.25-4.62,6.34-8.25,8.7-10.84,4.39,12.76,15.21,29.2,29.96,48.89,25.82,34.48,43.21,46.05,66.16,79.17,10.05,14.51,21.3,31.55,29.64,56.3,3.3,9.78,15.89,49.79,6.55,101.03-11.15,61.18-46.36,98.8-53.28,105.99-6.62,6.87-37.67,38.1-89.99,53.99-44.84,13.62-81.82,8.85-98.36,6.53-44.53-6.24-77.3-23.48-95.35-34.78Z" fill="url(#d)"/><path d="M455.22,188.49c-.71-1.9-1.45-3.76-2.19-5.58.74,1.82,1.48,3.67,2.19,5.58ZM455.22,188.49c.71,1.9,1.41,3.86,2.09,5.86.21.61.45,1.34.72,2.18-.27-.84-.51-1.57-.72-2.18-.68-2.01-1.37-3.96-2.09-5.86ZM417.11,394.17c-.74.86-1.43,1.66-2.08,2.39.65-.73,1.34-1.53,2.08-2.39ZM409.89,402.09c.25-.26.49-.5.69-.71.65-.67,1.55-1.62,2.65-2.82-1.1,1.2-2,2.14-2.65,2.82-.21.21-.44.45-.69.71ZM415.03,396.56c-.65.73-1.25,1.4-1.8,2,.55-.6,1.15-1.27,1.8-2ZM373.27,214.5c-4.69-5.79-21.69-25.63-29.82-34.6-.57-.62-2.31-2.53-4.53-5.21-3.69-4.44-6.38-8.22-8.57-11.29-20.62-28.92-25.34-51.44-25.34-51.44,0,0-8.53-37.13,7.39-72.67,4.42-9.88,10.46-18.46,10.46-18.46,3.25-4.62,6.34-8.25,8.7-10.84-10.37,5.96-23.45,14.97-36.29,28.28-3.92,4.06-20.05,21.21-32.5,48.92-4.53,10.08-11,24.51-13.41,44.37-3.66,30.17,4.34,54.24,12.68,78.47,7.02,20.4,8.63,17.68,16.12,37.97,11.94,32.33,23.53,64.35,12.09,97.91-8.33,24.44-25.47,39.57-32.23,44.96-9.96,7.94-20.43,13.09-38.28,18.98-20.62,6.81-51.91,14.88-92.86,17.26,8.75.53,21.74,1.09,37.46.84,56.62-.9,151.99-2.41,203.2-61.55,6.9-7.97,24.44-28.75,30.22-60.71,3.59-19.85,1.32-36.66-1-47.24-7.22-21.22-16.29-35.07-23.48-43.95Z" fill="url(#e)"/><path d="M126.88,427.12c40.95-2.37,72.24-10.44,92.86-17.26,17.84-5.89,28.31-11.04,38.28-18.98,6.76-5.39,23.9-20.51,32.23-44.96,11.44-33.56-.15-65.58-12.09-97.91-7.49-20.28-9.1-17.57-16.12-37.97-8.34-24.24-16.34-48.31-12.68-78.47,2.41-19.86,8.88-34.29,13.41-44.37,12.45-27.71,28.58-44.86,32.5-48.92,12.84-13.31,25.92-22.32,36.29-28.28,4.39,12.76,15.21,29.2,29.96,48.89,25.82,34.48,43.21,46.05,66.16,79.17,10.05,14.51,21.3,31.55,29.64,56.3,3.3,9.78,15.89,49.79,6.55,101.03-11.15,61.18-46.36,98.8-53.28,105.99-6.62,6.87-37.67,38.1-89.99,53.99-44.84,13.62-81.82,8.85-98.36,6.53-44.53-6.24-77.3-23.48-95.35-34.78Z" fill="url(#f)"/><path d="M454.91,187.49c-.01-.08-.03-.17-.04-.26.01.08.02.15.03.23,0,0,0,.02,0,.03Z" fill="none"/><polygon points="314.65 246.51 314.65 246.51 314.64 246.51 314.65 246.51" fill="#ff4aa2"/></g></svg>