<svg width="20" height="20" viewBox="0 0 20 20" fill="none" xmlns="http://www.w3.org/2000/svg">
<path d="M16.787 18.3333H18.3337L14.4037 8.8475C14.2753 8.53667 13.9712 8.33333 13.6337 8.33333H12.9287C12.592 8.33333 12.2878 8.53667 12.1587 8.8475L10.1987 13.5783C9.63449 13.2867 9.09283 12.9442 8.60783 12.5158C8.20283 12.1583 7.82116 11.78 7.46283 11.3825C8.87533 9.775 9.93949 7.895 10.607 5.8325H11.4262V4.375H7.25866V2.5H5.83533V4.375H1.66699V5.83333H9.10949C8.52366 7.4575 7.65949 8.9475 6.55116 10.2475C5.88283 9.33333 5.31866 8.34583 4.88283 7.29167H3.36116C3.89533 8.73667 4.63199 10.0825 5.54533 11.3008C5.41199 11.4283 5.28283 11.56 5.14366 11.6825C4.35949 12.375 3.45033 12.8825 2.48116 13.2075V14.7292C3.79449 14.3617 5.02699 13.7108 6.07283 12.7875C6.20866 12.6675 6.33366 12.5392 6.46533 12.4158C6.84783 12.8367 7.24949 13.2425 7.68033 13.6217C8.27783 14.15 8.93699 14.5892 9.63616 14.9408L8.22949 18.3333H9.77616L10.8978 15.625H15.6653L16.787 18.3333ZM11.502 14.1667L13.2812 9.87083L15.0612 14.1667H11.502Z" fill="#666666"/>
</svg>
