<?xml version="1.0" encoding="UTF-8"?>
<!--Generator: Apple Native CoreSVG 175-->
<!DOCTYPE svg
PUBLIC "-//W3C//DTD SVG 1.1//EN"
       "http://www.w3.org/Graphics/SVG/1.1/DTD/svg11.dtd">
<svg version="1.1" xmlns="http://www.w3.org/2000/svg" xmlns:xlink="http://www.w3.org/1999/xlink" width="19.1211" height="19.1309">
 <g>
  <rect height="19.1309" opacity="0" width="19.1211" x="0" y="0"/>
  <path d="M0.78125 6.23047Q1.57227 6.23047 1.57227 5.42969L1.57227 3.125Q1.57227 2.36328 1.96289 1.97754Q2.35352 1.5918 3.08594 1.5918L5.44922 1.5918Q6.25 1.5918 6.25 0.800781Q6.25 0.0195312 5.44922 0.0195312L3.06641 0.0195312Q1.5332 0.0195312 0.766602 0.776367Q0 1.5332 0 3.03711L0 5.42969Q0 6.23047 0.78125 6.23047ZM18.3301 6.23047Q19.1211 6.23047 19.1211 5.42969L19.1211 3.03711Q19.1211 1.5332 18.3545 0.776367Q17.5879 0.0195312 16.0547 0.0195312L13.6621 0.0195312Q12.8711 0.0195312 12.8711 0.800781Q12.8711 1.5918 13.6621 1.5918L16.0254 1.5918Q16.748 1.5918 17.1484 1.97754Q17.5488 2.36328 17.5488 3.125L17.5488 5.42969Q17.5488 6.23047 18.3301 6.23047ZM3.06641 19.1309L5.44922 19.1309Q6.25 19.1309 6.25 18.3496Q6.25 17.5586 5.44922 17.5586L3.08594 17.5586Q2.35352 17.5586 1.96289 17.1729Q1.57227 16.7871 1.57227 16.0254L1.57227 13.7207Q1.57227 12.9199 0.78125 12.9199Q0 12.9199 0 13.7207L0 16.1035Q0 17.6172 0.766602 18.374Q1.5332 19.1309 3.06641 19.1309ZM13.6621 19.1309L16.0547 19.1309Q17.5879 19.1309 18.3545 18.374Q19.1211 17.6172 19.1211 16.1035L19.1211 13.7207Q19.1211 12.9199 18.3301 12.9199Q17.5488 12.9199 17.5488 13.7207L17.5488 16.0254Q17.5488 16.7871 17.1484 17.1729Q16.748 17.5586 16.0254 17.5586L13.6621 17.5586Q12.8711 17.5586 12.8711 18.3496Q12.8711 19.1309 13.6621 19.1309ZM5.83984 8.91602Q6.18164 8.91602 6.40137 8.69629Q6.62109 8.47656 6.62109 8.125L6.62109 6.79688Q6.62109 6.44531 6.40137 6.22559Q6.18164 6.00586 5.83984 6.00586Q5.49805 6.00586 5.27832 6.22559Q5.05859 6.44531 5.05859 6.79688L5.05859 8.125Q5.05859 8.47656 5.27832 8.69629Q5.49805 8.91602 5.83984 8.91602ZM8.76953 11.2207Q8.78906 11.2207 8.81348 11.2207Q8.83789 11.2207 8.85742 11.2207Q9.59961 11.2207 9.99023 10.8301Q10.3809 10.4395 10.3809 9.69727L10.3809 6.62109Q10.3809 6.33789 10.21 6.16699Q10.0391 5.99609 9.74609 5.99609Q9.46289 5.99609 9.28711 6.16699Q9.11133 6.33789 9.11133 6.62109L9.11133 9.78516Q9.11133 9.86328 9.07227 9.89746Q9.0332 9.93164 8.96484 9.93164L8.62305 9.93164Q8.35938 9.93164 8.17871 10.1123Q7.99805 10.293 7.99805 10.5566Q7.99805 10.8691 8.20312 11.0449Q8.4082 11.2207 8.76953 11.2207ZM13.2422 8.91602Q13.584 8.91602 13.8037 8.69629Q14.0234 8.47656 14.0234 8.125L14.0234 6.79688Q14.0234 6.44531 13.8037 6.22559Q13.584 6.00586 13.2422 6.00586Q12.9004 6.00586 12.6807 6.22559Q12.4609 6.44531 12.4609 6.79688L12.4609 8.125Q12.4609 8.47656 12.6807 8.69629Q12.9004 8.91602 13.2422 8.91602ZM9.50195 14.502Q10.3809 14.502 11.2305 14.1455Q12.0801 13.7891 12.7246 13.1445Q12.8125 13.0566 12.8564 12.9395Q12.9004 12.8223 12.9004 12.6758Q12.9004 12.4023 12.7148 12.2217Q12.5293 12.041 12.2656 12.041Q12.002 12.041 11.7578 12.3047Q11.3574 12.7246 10.7568 12.9834Q10.1562 13.2422 9.50195 13.2422Q8.88672 13.2422 8.28125 12.9883Q7.67578 12.7344 7.25586 12.3047Q7.13867 12.1973 7.02637 12.1191Q6.91406 12.041 6.73828 12.041Q6.46484 12.041 6.2793 12.2217Q6.09375 12.4023 6.09375 12.6758Q6.09375 12.8027 6.14258 12.915Q6.19141 13.0273 6.28906 13.1348Q6.875 13.8086 7.74414 14.1553Q8.61328 14.502 9.50195 14.502Z" fill="rgba(0,0,0,0.85)"/>
 </g>
</svg>
