<svg width="24" height="24" viewBox="0 0 24 24" fill="none" xmlns="http://www.w3.org/2000/svg">
<path fill-rule="evenodd" clip-rule="evenodd" d="M11.9951 2C12.5474 2 12.9951 2.44772 12.9951 3V4C12.9951 4.55228 12.5474 5 11.9951 5C11.4428 5 10.9951 4.55228 10.9951 4V3C10.9951 2.44772 11.4428 2 11.9951 2ZM12 16C14.2091 16 16 14.2091 16 12C16 9.79086 14.2091 8 12 8C9.79086 8 8 9.79086 8 12C8 14.2091 9.79086 16 12 16ZM18 12C18 15.3137 15.3137 18 12 18C8.68629 18 6 15.3137 6 12C6 8.68629 8.68629 6 12 6C15.3137 6 18 8.68629 18 12ZM12.9951 19.9996C12.9951 19.4473 12.5474 18.9996 11.9951 18.9996C11.4428 18.9996 10.9951 19.4473 10.9951 19.9996V20.9964C10.9951 21.5487 11.4428 21.9964 11.9951 21.9964C12.5474 21.9964 12.9951 21.5487 12.9951 20.9964V19.9996ZM4.92537 4.92842C5.31589 4.5379 5.94906 4.5379 6.33958 4.92842L7.20405 5.79289C7.59458 6.18342 7.59458 6.81658 7.20405 7.20711C6.81353 7.59763 6.18036 7.59763 5.78984 7.20711L4.92537 6.34264C4.53484 5.95211 4.53484 5.31895 4.92537 4.92842ZM18.2073 16.796C17.8168 16.4055 17.1836 16.4055 16.7931 16.796C16.4025 17.1865 16.4025 17.8197 16.793 18.2102L17.6509 19.068C18.0414 19.4586 18.6745 19.4586 19.0651 19.0681C19.4556 18.6775 19.4556 18.0444 19.0651 17.6538L18.2073 16.796ZM1.99707 11.9982C1.99707 11.4459 2.44479 10.9982 2.99707 10.9982H3.99707C4.54936 10.9982 4.99707 11.4459 4.99707 11.9982C4.99707 12.5505 4.54936 12.9982 3.99707 12.9982H2.99707C2.44479 12.9982 1.99707 12.5505 1.99707 11.9982ZM19.9966 10.9982C19.4443 10.9982 18.9966 11.4459 18.9966 11.9982C18.9966 12.5505 19.4443 12.9982 19.9966 12.9982H20.9934C21.5456 12.9982 21.9934 12.5505 21.9934 11.9982C21.9934 11.4459 21.5456 10.9982 20.9934 10.9982H19.9966ZM4.92522 19.068C4.53469 18.6775 4.53469 18.0443 4.92522 17.6538L5.78615 16.7929C6.17667 16.4024 6.80984 16.4024 7.20036 16.7929C7.59089 17.1834 7.59089 17.8166 7.20036 18.2071L6.33943 19.068C5.94891 19.4586 5.31574 19.4586 4.92522 19.068ZM16.7861 5.7929C16.3955 6.18341 16.3955 6.81658 16.786 7.20711C17.1765 7.59764 17.8097 7.59765 18.2002 7.20714L19.0648 6.34264C19.4553 5.95212 19.4553 5.31896 19.0648 4.92843C18.6743 4.5379 18.0411 4.53788 17.6506 4.9284L16.7861 5.7929Z" fill="#6C6C6C"/>
</svg>
