<svg width="24" height="24" viewBox="0 0 24 24" fill="none" xmlns="http://www.w3.org/2000/svg">
<rect width="24" height="24" rx="6" fill="url(#paint0_linear_1001_15769)"/>
<path d="M17.429 18.6667H18.6663L15.5223 11.078C15.4197 10.8293 15.1763 10.6667 14.9063 10.6667H14.3423C14.073 10.6667 13.8297 10.8293 13.7263 11.078L12.1583 14.8627C11.707 14.6293 11.2737 14.3553 10.8857 14.0127C10.5617 13.7267 10.2563 13.424 9.96967 13.106C11.0997 11.82 11.951 10.316 12.485 8.666H13.1403V7.5H9.80634V6H8.66767V7.5H5.33301V8.66667H11.287C10.8183 9.966 10.127 11.158 9.24034 12.198C8.70567 11.4667 8.25434 10.6767 7.90567 9.83333H6.68834C7.11567 10.9893 7.70501 12.066 8.43567 13.0407C8.32901 13.1427 8.22567 13.248 8.11434 13.346C7.48701 13.9 6.75967 14.306 5.98434 14.566V15.7833C7.03501 15.4893 8.02101 14.9687 8.85767 14.23C8.96634 14.134 9.06634 14.0313 9.17167 13.9327C9.47767 14.2693 9.79901 14.594 10.1437 14.8973C10.6217 15.32 11.149 15.6713 11.7083 15.9527L10.583 18.6667H11.8203L12.7177 16.5H16.5317L17.429 18.6667ZM13.201 15.3333L14.6243 11.8967L16.0483 15.3333H13.201Z" fill="#FBFBFE"/>
<defs>
<linearGradient id="paint0_linear_1001_15769" x1="0" y1="0" x2="24" y2="24" gradientUnits="userSpaceOnUse">
<stop stop-color="#2B7FFF" stop-opacity="0.9"/>
<stop offset="0.5" stop-color="#155DFC" stop-opacity="0.95"/>
<stop offset="1" stop-color="#1447E6" stop-opacity="0.9"/>
</linearGradient>
</defs>
</svg>
