<?xml version="1.0" encoding="UTF-8"?><svg id="a" xmlns="http://www.w3.org/2000/svg" xmlns:xlink="http://www.w3.org/1999/xlink" viewBox="0 0 512 512"><defs><radialGradient id="b" cx="427.07" cy="65.75" fx="427.07" fy="65.75" r="497.38" gradientTransform="translate(-1.72 -1.11)" gradientUnits="userSpaceOnUse"><stop offset=".13" stop-color="#ffbd4f"/><stop offset=".19" stop-color="#ffab30"/><stop offset=".25" stop-color="#ff9d17"/><stop offset=".28" stop-color="#ff980e"/><stop offset=".4" stop-color="#ff553b"/><stop offset=".47" stop-color="#ff3750"/><stop offset=".71" stop-color="#f5156c"/><stop offset=".78" stop-color="#eb0877"/><stop offset=".86" stop-color="#e50080"/></radialGradient><radialGradient id="c" cx="245.32" cy="269.09" fx="245.32" fy="269.09" r="497.38" gradientTransform="translate(-1.72 -1.11)" gradientUnits="userSpaceOnUse"><stop offset=".3" stop-color="#960e18"/><stop offset=".35" stop-color="#b11826" stop-opacity=".74"/><stop offset=".43" stop-color="#db283c" stop-opacity=".34"/><stop offset=".5" stop-color="#f5334a" stop-opacity=".09"/><stop offset=".53" stop-color="#ff3750" stop-opacity="0"/></radialGradient><linearGradient id="d" x1="454.39" y1="99.55" x2="117.79" y2="436.15" gradientUnits="userSpaceOnUse"><stop offset=".17" stop-color="#fff44f" stop-opacity=".8"/><stop offset=".27" stop-color="#fff44f" stop-opacity=".63"/><stop offset=".49" stop-color="#fff44f" stop-opacity=".22"/><stop offset=".6" stop-color="#fff44f" stop-opacity="0"/></linearGradient><radialGradient id="e" cx="373.11" cy="-62.61" fx="373.11" fy="-62.61" r="726.79" gradientTransform="translate(-1.72 -1.11)" gradientUnits="userSpaceOnUse"><stop offset=".11" stop-color="#fff44f"/><stop offset=".46" stop-color="#ff980e"/><stop offset=".62" stop-color="#ff5634"/><stop offset=".72" stop-color="#ff3647"/><stop offset=".9" stop-color="#e31587"/></radialGradient><radialGradient id="f" cx="354.82" cy="135.06" fx="354.82" fy="135.06" r="496.7" gradientTransform="translate(-1.72 -1.11)" gradientUnits="userSpaceOnUse"><stop offset=".09" stop-color="#fff44f"/><stop offset=".23" stop-color="#ffe041"/><stop offset=".51" stop-color="#ffae1e"/><stop offset=".63" stop-color="#ff980e"/></radialGradient></defs><path d="M93.11,349.4c-.01-.08-.03-.17-.04-.26.01.08.02.15.03.23,0,0,0,.02,0,.03Z" style="fill:none;"/><path d="M19.92,229.52c-2.07,10.73-3.41,21.71-3.9,32.89,0,.41-.03.81-.03,1.22,0,131.65,107.6,238.37,240.32,238.37,118.86,0,217.56-85.6,236.88-198.03.41-3.05.73-6.12,1.09-9.2,4.78-40.88-.53-83.85-15.59-119.78-10.45-24.92-31.6-51.83-48.21-60.33,13.52,26.29,21.35,52.67,24.34,72.35,0-.06.01.05.04.22.01.08.03.17.04.26,22.68,60.98,10.32,122.99-7.48,160.88-27.54,58.62-94.22,118.71-198.58,115.78-47.5-1.33-92.62-16.84-130.32-42.46l-2.15-1.48c-22.53-16.13-51.41-41.93-73.2-80.37-7.93-13.98-19.04-34-23.51-62.93-2.27-14.67-2.21-27.58-1.35-38.05l1.6-9.34Z" style="fill:url(#b);"/><path d="M19.92,229.52c-2.07,10.73-3.41,21.71-3.9,32.89,0,.41-.03.81-.03,1.22,0,131.65,107.6,238.37,240.32,238.37,118.86,0,217.56-85.6,236.88-198.03.41-3.05.73-6.12,1.09-9.2,4.78-40.88-.53-83.85-15.59-119.78-10.45-24.92-31.6-51.83-48.21-60.33,13.52,26.29,21.35,52.67,24.34,72.35,0-.06.01.05.04.22.01.08.03.17.04.26,22.68,60.98,10.32,122.99-7.48,160.88-27.54,58.62-94.22,118.71-198.58,115.78-47.5-1.33-92.62-16.84-130.32-42.46l-2.15-1.48c-22.53-16.13-51.41-41.93-73.2-80.37-7.93-13.98-19.04-34-23.51-62.93-2.27-14.67-2.21-27.58-1.35-38.05l1.6-9.34Z" style="fill:url(#c);"/><path d="M19.92,229.52c-2.07,10.73-3.41,21.71-3.9,32.89,0,.41-.03.81-.03,1.22,0,131.65,107.6,238.37,240.32,238.37,118.86,0,217.56-85.6,236.88-198.03.41-3.05.73-6.12,1.09-9.2,4.78-40.88-.53-83.85-15.59-119.78-10.45-24.92-31.6-51.83-48.21-60.33,13.52,26.29,21.35,52.67,24.34,72.35,0-.06.01.05.04.22.01.08.03.17.04.26,22.68,60.98,10.32,122.99-7.48,160.88-27.54,58.62-94.22,118.71-198.58,115.78-47.5-1.33-92.62-16.84-130.32-42.46l-2.15-1.48c-22.53-16.13-51.41-41.93-73.2-80.37-7.93-13.98-19.04-34-23.51-62.93-2.27-14.67-2.21-27.58-1.35-38.05l1.6-9.34Z" style="fill:url(#d);"/><path d="M116.63,420.38c38.08,26.4,83.92,42.41,132.23,43.77,104.36,2.93,171.04-57.16,198.58-115.78,17.8-37.89,30.15-99.9,7.48-160.88,0,0,0-.02,0-.03-.01-.08-.02-.16-.03-.23-.02-.18-.04-.28-.04-.22,0,.04.01.13.05.4,8.52,55.22-19.79,108.71-64.05,144.88-.08.19-.13.31-.13.31-86.25,69.66-168.77,42.03-185.48,30.72-1.17-.55-2.33-1.13-3.5-1.73-50.28-23.84-71.05-69.28-66.6-108.25-42.46,0-56.93-35.52-56.93-35.52,0,0,38.12-26.96,88.36-3.51,46.53,21.72,90.23,3.51,90.23,3.51-.09-1.94-41.92-18.44-58.22-34.38-8.71-8.52-12.85-12.62-16.51-15.7-1.99-1.67-3.86-3.06-6.22-4.66-1.43-.97-3.03-2.01-4.98-3.27-17.53-11.3-52.39-10.68-53.54-10.65-.02,0-.11,0-.11,0-9.53-11.97-8.86-51.46-8.31-59.7-8.48,5.22-20.84,13.73-33.69,26.4-40.09,39.53-50.91,85.92-53.93,102.15-2.02,10.84-5.75,31.89-1.57,58.9,4.47,28.93,15.58,48.95,23.51,62.93,21.8,38.44,50.68,64.24,73.2,80.37l.24.18Z" style="fill:url(#e);"/><path d="M148.44,285.19s11.09-41,79.43-41c7.39,0,28.51-20.45,28.9-26.38h0s0,0,0,0c0,0-43.7,18.21-90.23-3.51-50.24-23.45-88.36,3.51-88.36,3.51,0,0,14.48,35.52,56.93,35.52-4.45,38.97,16.32,84.41,66.6,108.25,1.12.53,2.18,1.11,3.33,1.63-29.35-15.05-53.58-43.48-56.61-78.01Z" style="fill:url(#f);"/></svg>