<?xml version="1.0" encoding="UTF-8"?><svg id="a" xmlns="http://www.w3.org/2000/svg" xmlns:xlink="http://www.w3.org/1999/xlink" viewBox="0 0 512 512"><defs><radialGradient id="b" cx="233.25" cy="107.4" fx="233.25" fy="107.4" r="453.82" gradientTransform="translate(.07 0)" gradientUnits="userSpaceOnUse"><stop offset=".14" stop-color="#fff44f"/><stop offset=".48" stop-color="#ff980e"/><stop offset=".59" stop-color="#ff5634"/><stop offset=".66" stop-color="#ff3647"/><stop offset=".9" stop-color="#e31587"/></radialGradient><linearGradient id="c" x1="445.07" y1="163.08" x2="183.85" y2="424.3" gradientUnits="userSpaceOnUse"><stop offset="0" stop-color="#fff44f" stop-opacity=".8"/><stop offset=".14" stop-color="#fff44f" stop-opacity=".63"/><stop offset=".45" stop-color="#fff44f" stop-opacity=".22"/><stop offset=".6" stop-color="#fff44f" stop-opacity="0"/></linearGradient><radialGradient id="d" cx="385.32" cy="9.56" fx="385.32" fy="9.56" r="543.32" gradientUnits="userSpaceOnUse"><stop offset=".11" stop-color="#fff44f"/><stop offset=".46" stop-color="#ff980e"/><stop offset=".62" stop-color="#ff5634"/><stop offset=".72" stop-color="#ff3647"/><stop offset=".9" stop-color="#e31587"/></radialGradient><radialGradient id="e" cx="237.26" cy="44.29" fx="237.26" fy="44.29" r="170.37" gradientTransform="translate(.07 0)" gradientUnits="userSpaceOnUse"><stop offset="0" stop-color="#ffe226"/><stop offset=".12" stop-color="#ffdb27"/><stop offset=".3" stop-color="#ffc82a"/><stop offset=".5" stop-color="#ffa82f"/><stop offset=".73" stop-color="#ff7d36"/><stop offset=".79" stop-color="#ff7139"/></radialGradient><radialGradient id="f" cx="425.29" cy="64.65" fx="425.29" fy="64.65" r="497.38" gradientTransform="translate(.07 0)" gradientUnits="userSpaceOnUse"><stop offset=".13" stop-color="#ffbd4f" stop-opacity="0"/><stop offset=".21" stop-color="#ffa526" stop-opacity=".06"/><stop offset=".28" stop-color="#ff980e" stop-opacity=".1"/><stop offset=".41" stop-color="#ff543c" stop-opacity=".38"/><stop offset=".47" stop-color="#ff3750" stop-opacity=".5"/><stop offset=".49" stop-color="#fe3352" stop-opacity=".55"/><stop offset=".71" stop-color="#f5156c"/><stop offset=".78" stop-color="#eb0877"/><stop offset=".86" stop-color="#e50080"/></radialGradient><radialGradient id="g" cx="243.54" cy="267.99" fx="243.54" fy="267.99" r="497.38" gradientTransform="translate(.07 0)" gradientUnits="userSpaceOnUse"><stop offset=".3" stop-color="#960e18"/><stop offset=".35" stop-color="#b11826" stop-opacity=".74"/><stop offset=".43" stop-color="#db283c" stop-opacity=".34"/><stop offset=".5" stop-color="#f5334a" stop-opacity=".09"/><stop offset=".53" stop-color="#ff3750" stop-opacity="0"/></radialGradient></defs><path d="M390.91,332.21s-.05.04-.08.07c-.08.19-.13.31-.13.31-86.25,69.66-168.77,42.03-185.48,30.72-.57-.27-1.14-.56-1.7-.84.5.25,1.01.5,1.54.74-6.69-3.43-13.11-7.57-19.08-12.3,21.57,30.32,56.99,50.1,97.04,50.1,47.78,0,88.97-28.16,107.91-68.79Z" style="fill:#ff5137;"/><path d="M367.02,207.03c-1.05-.96-2.28-1.94-3.61-2.93-.49-.36-.97-.73-1.49-1.09-12.83-8.94-35.81-17.77-57.95-13.96,86.44,42.87,63.23,190.49-56.55,184.92-10.42-.48-21-2.31-31.27-5.98-2.35-.87-4.7-1.83-7.06-2.86-1.36-.61-2.71-1.23-4.05-1.92.05.03.11.07.16.1,16.71,11.31,99.24,38.94,185.48-30.72,0,0,.05-.12.13-.31,2.13-5.02,30.67-75.45-23.81-125.25Z" style="fill:url(#b);"/><path d="M367.02,207.03c-1.05-.96-2.28-1.94-3.61-2.93-.49-.36-.97-.73-1.49-1.09-12.83-8.94-35.81-17.77-57.95-13.96,86.44,42.87,63.23,190.49-56.55,184.92-10.42-.48-21-2.31-31.27-5.98-2.35-.87-4.7-1.83-7.06-2.86-1.36-.61-2.71-1.23-4.05-1.92.05.03.11.07.16.1,16.71,11.31,99.24,38.94,185.48-30.72,0,0,.05-.12.13-.31,2.13-5.02,30.67-75.45-23.81-125.25Z" style="fill:url(#c);"/><path d="M478.71,174.99c-10.45-24.92-31.6-51.83-48.21-60.33,13.52,26.29,21.35,52.67,24.34,72.35,0,.04.01.14.05.4,8.52,55.22-19.79,108.71-64.05,144.88-.08.19-.13.31-.13.31-86.25,69.66-168.77,42.03-185.48,30.72-.57-.27-1.14-.56-1.7-.84.5.25,1.01.5,1.54.74-29.35-15.05-53.58-43.48-56.61-78.01,0,0,11.09-41,79.43-41,7.39,0,28.51-20.45,28.9-26.38h0s0,0,0,0h0c-.09-1.94-41.92-18.44-58.22-34.38-8.71-8.52-12.85-12.62-16.51-15.7-1.99-1.67-3.86-3.06-6.22-4.66-1.43-.97-3.03-2.01-4.98-3.27-17.53-11.3-52.39-10.68-53.54-10.65-.02,0-.11,0-.11,0-9.53-11.97-8.86-51.46-8.31-59.7-8.48,5.22-20.84,13.73-33.69,26.4-40.09,39.53-50.91,85.92-53.93,102.15-.92,4.95-2.2,12.03-2.92,20.83v.03s0,.08-.01.11c0,0,0-.02,0-.02,0,.07-.01.15-.02.22,0-.07,0-.13.01-.2-1.16,7.7-1.94,15.52-2.28,23.44,0,.41-.03.81-.03,1.22,0,131.65,107.6,238.37,240.32,238.37,118.86,0,217.56-85.6,236.88-198.03.41-3.05.73-6.12,1.09-9.2,4.78-40.88-.53-83.85-15.59-119.78ZM454.9,187.46c-.01-.08-.02-.16-.03-.23.01.08.03.17.04.26,0,0,0-.02,0-.03Z" style="fill:url(#d);"/><path d="M170.83,159.79c1.95,1.26,3.55,2.3,4.98,3.27-9.22-30.9-.67-58.26-.67-58.26-24.69,11.15-43.89,28.78-57.85,44.34,1.15-.03,36.01-.65,53.54,10.65Z" style="fill:url(#e);"/><path d="M19.92,229.52c-2.07,10.73-3.41,21.71-3.9,32.89,0,.41-.03.81-.03,1.22,0,131.65,107.6,238.37,240.32,238.37,118.86,0,217.56-85.6,236.88-198.03.41-3.05.73-6.12,1.09-9.2,4.78-40.88-.53-83.85-15.59-119.78-10.45-24.92-31.6-51.83-48.21-60.33,13.52,26.29,21.35,52.67,24.34,72.35,0-.06.01.05.04.22.01.08.03.17.04.26,22.68,60.98,10.32,122.99-7.48,160.88-27.54,58.62-94.22,118.71-198.58,115.78-47.5-1.33-92.62-16.84-130.32-42.46l-2.15-1.48c-22.53-16.13-51.41-41.93-73.2-80.37-7.93-13.98-19.04-34-23.51-62.93-2.27-14.67-2.21-27.58-1.35-38.05l1.6-9.34Z" style="fill:url(#f);"/><path d="M19.92,229.52c-2.07,10.73-3.41,21.71-3.9,32.89,0,.41-.03.81-.03,1.22,0,131.65,107.6,238.37,240.32,238.37,118.86,0,217.56-85.6,236.88-198.03.41-3.05.73-6.12,1.09-9.2,4.78-40.88-.53-83.85-15.59-119.78-10.45-24.92-31.6-51.83-48.21-60.33,13.52,26.29,21.35,52.67,24.34,72.35,0-.06.01.05.04.22.01.08.03.17.04.26,22.68,60.98,10.32,122.99-7.48,160.88-27.54,58.62-94.22,118.71-198.58,115.78-47.5-1.33-92.62-16.84-130.32-42.46l-2.15-1.48c-22.53-16.13-51.41-41.93-73.2-80.37-7.93-13.98-19.04-34-23.51-62.93-2.27-14.67-2.21-27.58-1.35-38.05l1.6-9.34Z" style="fill:url(#g);"/></svg>