<svg width="24" height="24" viewBox="0 0 24 24" fill="none" xmlns="http://www.w3.org/2000/svg">
<path fill-rule="evenodd" clip-rule="evenodd" d="M12.625 5.49609C12.788 5.49609 13.193 5.54209 13.433 5.96809L20.266 18.1151C20.501 18.5331 20.339 18.8991 20.258 19.0371C20.177 19.1751 19.938 19.4961 19.458 19.4961H5.79199C5.31199 19.4961 5.07299 19.1751 4.99199 19.0371C4.91099 18.8991 4.74899 18.5331 4.98399 18.1151L11.817 5.96809C12.057 5.54209 12.462 5.49609 12.625 5.49609ZM12.625 3.99609C11.799 3.99609 10.974 4.40809 10.51 5.23309L3.67699 17.3801C2.76799 18.9971 3.93599 20.9961 5.79199 20.9961H19.457C21.313 20.9961 22.482 18.9971 21.572 17.3801L14.74 5.23309C14.276 4.40809 13.451 3.99609 12.625 3.99609ZM12.75 8.99609C12.336 8.99609 12 9.33209 12 9.74609V13.2461C12 13.6601 12.336 13.9961 12.75 13.9961C13.164 13.9961 13.5 13.6601 13.5 13.2461V9.74609C13.5 9.33209 13.164 8.99609 12.75 8.99609ZM12 16.6961L12.3 16.9961H13.2L13.5 16.6961V15.7961L13.2 15.4961H12.3L12 15.7961V16.6961Z" fill="#C50042"/>
</svg>
