<svg width="64" height="65" viewBox="0 0 64 65" fill="none" xmlns="http://www.w3.org/2000/svg">
<path d="M32.7468 15.093C32.7468 15.093 33.2372 14.7168 33.4781 14.524C37.2921 11.4746 41.2126 8.5266 45.0965 5.56414C45.2766 5.42653 45.4623 5.29599 45.648 5.16608C45.7464 5.09712 45.8451 5.02784 45.9428 4.95791C46.0654 4.87035 46.2014 4.75392 46.3295 4.73178C46.4384 4.71286 46.5636 4.71382 46.6663 4.76001C46.7699 4.80652 46.8591 4.87901 46.949 4.94637C47.0442 5.01757 47.1419 5.08525 47.2373 5.15582C47.4325 5.30016 47.6247 5.44867 47.8127 5.60198C48.3874 6.0706 48.9908 6.50939 49.5786 6.9623C50.7188 7.84116 51.8591 8.7197 52.9993 9.59856C54.4099 10.6856 55.8205 11.7726 57.231 12.86C57.9509 13.4149 58.6887 13.9669 59.3824 14.5529C59.7436 14.8579 59.877 14.9628 59.5556 15.3628C59.1944 15.8122 58.8266 16.2567 58.4572 16.6994C57.9816 17.2697 57.5001 17.8358 57.0136 18.3971C56.5759 18.902 56.3118 19.2808 55.7015 19.9518C55.6619 19.9954 55.6387 20.0291 55.5959 20.0711C55.3824 20.2799 55.3219 20.1693 55.1055 20.0031C54.8577 19.8129 54.6034 19.6304 54.3514 19.446C52.9463 18.4189 51.5786 17.356 50.1974 16.2981C50.1056 16.2269 50.0464 16.2211 50.0435 16.3587C50.0422 16.4184 50.0428 16.4777 50.0428 16.5374C50.0428 20.415 50.0425 24.2929 50.0418 28.1704C50.0418 28.7459 50.0412 29.3213 50.0408 29.8964C50.0408 30.1241 50.0382 30.8619 50.0382 30.8619C50.0382 30.8619 49.7774 30.8622 49.6793 30.8622C47.5293 30.8622 42.8814 30.8558 42.8814 30.8558C42.8814 30.8558 42.8925 30.1046 42.8925 29.8679C42.8922 25.4232 42.8925 20.9788 42.8922 16.5342C42.8922 16.4745 42.8932 16.4152 42.8915 16.3549C42.8915 16.2632 42.7915 16.2843 42.6918 16.3542C42.5532 16.4469 42.3927 16.5746 42.3927 16.5746L41.6545 17.1154L40.2518 18.129C40.2518 18.129 37.7226 19.9524 37.1387 20.3986C37.1387 20.3986 34.3885 17.1645 34.1574 16.8937C33.7991 16.4742 32.7468 15.093 32.7468 15.093Z" fill="#0094C7"/>
<path d="M10 20.0146V53.6412C10 55.7502 10.5552 57.9761 12.3194 59.1317C12.7146 59.3906 13.1304 59.5913 13.541 59.6721C14.5236 59.8654 15.8192 59.4393 16.6921 59.0711C17.3467 58.795 17.9212 58.378 18.4594 57.9142C20.7577 55.934 27.3005 50.4243 28.9491 50.4243C30.5361 50.4243 37.0159 55.5295 39.6722 57.6777C40.4361 58.2954 41.2712 58.8344 42.2274 59.0598C42.8006 59.1949 43.4499 59.2852 43.9744 59.1904C44.5657 59.0836 45.1506 58.7143 45.6696 58.2664C47.0785 57.0506 47.5154 55.1201 47.5154 53.2592V20.3408C47.5154 19.5277 47.4282 18.7124 47.1501 17.9484C46.9713 17.4572 46.7355 16.9096 46.4627 16.5155C46.3667 16.3768 46.2527 16.2379 46.1271 16.1011C44.9093 14.7743 43.0221 14.3962 41.2212 14.3962H15.6532C14.2609 14.3962 12.8156 14.6033 11.7316 15.4771C11.586 15.5945 11.452 15.7167 11.3398 15.8412C10.7908 16.4504 10.421 17.4932 10.2113 18.2385C10.0486 18.8171 10 19.4137 10 20.0146Z" fill="#F7BC00"/>
<mask id="mask0_1648_19935" style="mask-type:alpha" maskUnits="userSpaceOnUse" x="10" y="14" width="38" height="46">
<path d="M10 20.0146V53.6412C10 55.7502 10.5552 57.9761 12.3194 59.1317C12.7146 59.3906 13.1304 59.5913 13.541 59.6721C14.5236 59.8654 15.8192 59.4393 16.6921 59.0711C17.3467 58.795 17.9212 58.378 18.4594 57.9142C20.7577 55.934 27.3005 50.4243 28.9491 50.4243C30.5361 50.4243 37.0159 55.5295 39.6722 57.6777C40.4361 58.2954 41.2712 58.8344 42.2274 59.0598C42.8006 59.1949 43.4499 59.2852 43.9744 59.1904C44.5657 59.0836 45.1506 58.7143 45.6696 58.2664C47.0785 57.0506 47.5154 55.1201 47.5154 53.2592V20.3408C47.5154 19.5277 47.4282 18.7124 47.1501 17.9484C46.9713 17.4572 46.7355 16.9096 46.4627 16.5155C46.3667 16.3768 46.2527 16.2379 46.1271 16.1011C44.9093 14.7743 43.0221 14.3962 41.2212 14.3962H15.6532C14.2609 14.3962 12.8156 14.6033 11.7316 15.4771C11.586 15.5945 11.452 15.7167 11.3398 15.8412C10.7908 16.4504 10.421 17.4932 10.2113 18.2385C10.0486 18.8171 10 19.4137 10 20.0146Z" fill="#FFAF87"/>
</mask>
<g mask="url(#mask0_1648_19935)">
<path d="M32.7468 15.093C32.7468 15.093 33.2372 14.7168 33.4781 14.524C37.2921 11.4746 41.2126 8.5266 45.0965 5.56414C45.2766 5.42653 45.4623 5.29599 45.648 5.16608C45.7464 5.09712 45.8451 5.02784 45.9428 4.95791C46.0654 4.87035 46.2014 4.75392 46.3295 4.73178C46.4384 4.71286 46.5636 4.71382 46.6663 4.76001C46.7699 4.80652 46.8591 4.87901 46.949 4.94637C47.0442 5.01757 47.1419 5.08525 47.2373 5.15582C47.4325 5.30016 47.6247 5.44867 47.8127 5.60198C48.3874 6.0706 48.9908 6.50939 49.5786 6.9623C50.7188 7.84116 51.8591 8.7197 52.9993 9.59856C54.4099 10.6856 55.8205 11.7726 57.231 12.86C57.9509 13.4149 58.6887 13.9669 59.3824 14.5529C59.7436 14.8579 59.877 14.9628 59.5556 15.3628C59.1944 15.8122 58.8266 16.2567 58.4572 16.6994C57.9816 17.2697 57.5001 17.8358 57.0136 18.3971C56.5759 18.902 56.3118 19.2808 55.7015 19.9518C55.6619 19.9954 55.6387 20.0291 55.5959 20.0711C55.3824 20.2799 55.3219 20.1693 55.1055 20.0031C54.8577 19.8129 54.6034 19.6304 54.3514 19.446C52.9463 18.4189 51.5786 17.356 50.1974 16.2981C50.1056 16.2269 50.0464 16.2211 50.0435 16.3587C50.0422 16.4184 50.0428 16.4777 50.0428 16.5374C50.0428 20.415 50.0425 24.2929 50.0418 28.1704C50.0418 28.7459 50.0412 29.3213 50.0408 29.8964C50.0408 30.1241 50.0382 30.8619 50.0382 30.8619C50.0382 30.8619 49.7774 30.8622 49.6793 30.8622C47.5293 30.8622 42.8814 30.8558 42.8814 30.8558C42.8814 30.8558 42.8925 30.1046 42.8925 29.8679C42.8922 25.4232 42.8925 20.9788 42.8922 16.5342C42.8922 16.4745 42.8932 16.4152 42.8915 16.3549C42.8915 16.2632 42.7915 16.2843 42.6918 16.3542C42.5532 16.4469 42.3927 16.5746 42.3927 16.5746L41.6545 17.1154L40.2518 18.129C40.2518 18.129 37.7226 19.9524 37.1387 20.3986C37.1387 20.3986 34.3885 17.1645 34.1574 16.8937C33.7991 16.4742 32.7468 15.093 32.7468 15.093Z" fill="#008009"/>
</g>
</svg>
