<?xml version="1.0" encoding="UTF-8"?><svg id="Layer_1" xmlns="http://www.w3.org/2000/svg" xmlns:xlink="http://www.w3.org/1999/xlink" viewBox="0 0 2732 2732"><defs><clipPath id="clippath"><rect x="3244.49" width="2731.23" height="2732" fill="none"/></clipPath><linearGradient id="linear-gradient" x1="4354.67" y1="2012.36" x2="4363.35" y2="1301.25" gradientUnits="userSpaceOnUse"><stop offset="0" stop-color="#fff4ee"/><stop offset=".22" stop-color="#fcebef"/><stop offset=".57" stop-color="#f7d3f4"/><stop offset="1" stop-color="#eeaefc"/></linearGradient><linearGradient id="linear-gradient-2" x1="-1857.09" y1="3210.7" x2="-1823.67" y2="3792.13" gradientTransform="translate(2493.9 5603.33) rotate(-180)" xlink:href="#linear-gradient"/><clipPath id="clippath-1"><rect x=".39" width="2731.23" height="2732" fill="none"/></clipPath><linearGradient id="linear-gradient-3" x1="781.82" y1="633.8" x2="786.54" y2="383.67" gradientUnits="userSpaceOnUse"><stop offset="0" stop-color="#210340"/><stop offset=".23" stop-color="#29074c"/><stop offset=".66" stop-color="#3f116d"/><stop offset="1" stop-color="#541c8d"/></linearGradient><linearGradient id="linear-gradient-4" x1="1132.5" y1="886.7" x2="1127.05" y2="658.04" xlink:href="#linear-gradient-3"/><linearGradient id="linear-gradient-5" x1="1944.74" y1="1024.59" x2="1949.39" y2="778.61" xlink:href="#linear-gradient-3"/><linearGradient id="linear-gradient-6" x1="1110.57" y1="2012.36" x2="1119.24" y2="1301.25" xlink:href="#linear-gradient-3"/><linearGradient id="linear-gradient-7" x1="1387.02" y1="3210.7" x2="1420.44" y2="3792.13" gradientTransform="translate(2493.9 5603.33) rotate(-180)" xlink:href="#linear-gradient-3"/></defs><g clip-path="url(#clippath)"><path d="M6391.98,1699s-23.61-4.03-36.19-6.24c-41.76-7.34-89.56-16.15-146.91-26.68-289.33-53.1-402.17-179.02-695.6-179.02s-415.12,110.92-659.49,179.02c-157.65,43.93-327.06,59.96-471.08,58.38-398.38-25.66-467.21-150.69-768.48-152.24-257.12-1.32-389.09,100.91-592.13,142.95-238.72,49.44-509.79,48.74-625.19,45.62-35.99-.97-75.31-2.18-75.31-2.18l-3.88,621.79s2788.55-55.1,3104.86-41.26c672.62,29.44,965.22-76.6,965.22-76.6l4.18-563.55Z" fill="url(#linear-gradient)"/><path d="M6386.21,1915.08s-28.3,25.15-42.34,36.63c-164.34,134.42-340.67,182.92-608.81,181.16-225.99-1.48-389.77-68.91-605.07-132.44-296.29-87.43-481.58-67.06-688.85,36.58-136.73,68.36-276.26,172.37-445.01,213.05-252.93,60.98-452.66-33.37-698.16-172.86-252.82-143.64-629.46-138.39-929,59.21-16.71,11.02-49.23,34.88-49.23,34.88v767.91l4066.46,2.63v-1026.75Z" fill="url(#linear-gradient-2)"/></g><g clip-path="url(#clippath-1)"><rect y="0" width="2732" height="2732" fill="#210340"/><path d="M1085.34,525.09c-49.03,10.03-121.4,9.79-303.49,9.79-163.42,0-308.16,3.58-331.5-16.48-23.35-20.06,0-50.15,63.03-50.15,35.1,0,93.38,3.34,158.75-23.4,65.37-26.75,93.38-56.84,196.1-63.52,102.72-6.69,142.41,56.84,205.44,66.87,63.03,10.03,75.13,63.91,11.67,76.9Z" fill="url(#linear-gradient-3)"/><path d="M1306.67,811.3c-31.13,6.16-60.66,7.79-176.28,7.79-103.77,0-164.1,9.65-193.66-9.1-16.27-10.32-5.06-46.36,34.97-46.36,22.29,0,34.96-19.92,71.2-45.98,36.82-26.47,85.44-36.38,130.6-7.27,63.51,40.93,79.59,28.92,119.62,35.08,40.02,6.16,53.86,57.86,13.56,65.83Z" fill="url(#linear-gradient-4)"/><path d="M2097.9,898.47c-26.54,5.25-51.71,6.64-150.28,6.64-88.46,0-139.89,8.23-165.09-7.76-13.87-8.8-4.31-39.52,29.81-39.52,19,0,29.81-16.98,60.7-39.19,31.38-22.57,72.84-31.01,111.33-6.2,54.14,34.89,67.85,24.66,101.97,29.9,34.12,5.25,45.91,49.33,11.56,56.12Z" fill="url(#linear-gradient-5)"/><path d="M3147.87,1699s-23.61-4.03-36.19-6.24c-41.76-7.34-89.56-16.15-146.91-26.68-289.33-53.1-402.17-179.02-695.6-179.02s-415.12,110.92-659.49,179.02c-157.65,43.93-327.06,59.96-471.08,58.38-398.38-25.66-467.21-150.69-768.48-152.24-257.12-1.32-389.09,100.91-592.13,142.95-238.72,49.44-509.79,48.74-625.19,45.62-35.99-.97-75.31-2.18-75.31-2.18l-3.88,621.79s2788.55-55.1,3104.86-41.26c672.62,29.44,965.22-76.6,965.22-76.6l4.18-563.55Z" fill="url(#linear-gradient-6)"/><path d="M3142.1,1915.08s-28.3,25.15-42.34,36.63c-164.34,134.42-340.67,182.92-608.81,181.16-225.99-1.48-389.77-68.91-605.07-132.44-296.29-87.43-481.58-67.06-688.85,36.58-136.73,68.36-276.26,172.37-445.01,213.05-252.93,60.98-452.66-33.37-698.16-172.86-252.82-143.64-629.46-138.39-929,59.21-16.71,11.02-49.23,34.88-49.23,34.88v767.91l4066.46,2.63v-1026.75Z" fill="url(#linear-gradient-7)"/></g></svg>