<svg width="24" height="24" viewBox="0 0 24 24" fill="none" xmlns="http://www.w3.org/2000/svg">
<path fill-rule="evenodd" clip-rule="evenodd" d="M8.06567 6.02554C6.21318 7.28665 5 9.41153 5 11.8166C5 15.6826 8.13401 18.8166 12 18.8166C14.4051 18.8166 16.5299 17.6034 17.7911 15.7509C12.6817 15.1924 8.62421 11.1349 8.06567 6.02554ZM19 13.8166C19.866 13.8166 20.6118 14.5799 20.2691 15.3752C18.8898 18.5759 15.7066 20.8166 12 20.8166C7.02944 20.8166 3 16.7872 3 11.8166C3 8.11003 5.24067 4.92679 8.4414 3.54752C9.23674 3.20478 10 3.95057 10 4.81661C10 9.78718 14.0294 13.8166 19 13.8166Z" fill="#6C6C6C"/>
</svg>
