<svg width="25" height="25" viewBox="0 0 25 25" fill="none" xmlns="http://www.w3.org/2000/svg">
<path fill-rule="evenodd" clip-rule="evenodd" d="M22.5103 12.3213C22.5103 17.8441 18.0331 22.3213 12.5103 22.3213C6.98741 22.3213 2.51025 17.8441 2.51025 12.3213C2.51025 6.79844 6.98741 2.32129 12.5103 2.32129C18.0331 2.32129 22.5103 6.79844 22.5103 12.3213ZM20.5103 12.3213C20.5103 16.7396 16.9285 20.3213 12.5103 20.3213C8.09198 20.3213 4.51025 16.7396 4.51025 12.3213C4.51025 7.90301 8.09198 4.32129 12.5103 4.32129C14.8684 4.32129 16.9883 5.34161 18.4525 6.96487L11.5103 13.9071L8.71736 11.1142C8.32684 10.7237 7.69367 10.7237 7.30315 11.1142C6.91262 11.5047 6.91262 12.1379 7.30315 12.5284L10.096 15.3213C10.8771 16.1023 12.1434 16.1023 12.9245 15.3213L19.6117 8.63405C20.1858 9.73745 20.5103 10.9915 20.5103 12.3213Z" fill="#D8FF80"/>
</svg>
