<?xml version="1.0" encoding="UTF-8"?>
<!--Generator: Apple Native CoreSVG 175-->
<!DOCTYPE svg
PUBLIC "-//W3C//DTD SVG 1.1//EN"
       "http://www.w3.org/Graphics/SVG/1.1/DTD/svg11.dtd">
<svg version="1.1" xmlns="http://www.w3.org/2000/svg" xmlns:xlink="http://www.w3.org/1999/xlink" width="21.5118" height="21.1816">
 <g>
  <rect height="21.1816" opacity="0" width="21.5118" x="0" y="0"/>
  <path d="M1.11886 13.8867Q1.33371 13.8184 1.42648 13.6182Q1.51925 13.418 1.46066 13.1738Q1.27511 12.4316 1.17746 11.6162Q1.0798 10.8008 1.11886 9.77539Q1.12863 9.50195 0.991908 9.35547Q0.85519 9.20898 0.640346 9.19922Q0.357143 9.17969 0.205776 9.32617Q0.0544085 9.47266 0.0251116 9.70703Q-0.0334821 10.5273 0.0446429 11.499Q0.122768 12.4707 0.405971 13.4863Q0.484096 13.7402 0.689174 13.8477Q0.894252 13.9551 1.11886 13.8867ZM0.689174 8.06641Q0.904018 8.14453 1.13839 8.05176Q1.37277 7.95898 1.47042 7.67578Q2.26144 5.47852 3.68722 4.01855Q5.113 2.55859 6.91476 1.82617Q8.71652 1.09375 10.6208 1.09375Q11.9196 1.09375 12.9694 1.35254Q14.0193 1.61133 14.8884 2.10938Q15.1423 2.25586 15.3864 2.24121Q15.6306 2.22656 15.738 1.98242Q15.8552 1.72852 15.7575 1.55762Q15.6599 1.38672 15.4743 1.26953Q14.361 0.566406 13.1892 0.283203Q12.0173 0 10.6208 0Q8.97042 0 7.42257 0.439453Q5.87472 0.878906 4.53195 1.77246Q3.18917 2.66602 2.13449 4.00391Q1.0798 5.3418 0.405971 7.13867Q0.269252 7.50977 0.376674 7.74902Q0.484096 7.98828 0.689174 8.06641ZM21.0017 11.6113Q21.236 11.6113 21.3825 11.4404Q21.529 11.2695 21.5095 11.0156Q21.2849 9.02344 20.7722 7.48535Q20.2595 5.94727 19.4441 4.74609Q18.6286 3.54492 17.5056 2.55859Q17.2907 2.37305 17.0661 2.40234Q16.8415 2.43164 16.7146 2.57812Q16.5778 2.73438 16.5827 2.9541Q16.5876 3.17383 16.8025 3.36914Q18.2478 4.7168 19.2292 6.54785Q20.2107 8.37891 20.4548 11.0352Q20.4841 11.2793 20.6257 11.4453Q20.7673 11.6113 21.0017 11.6113ZM2.25167 16.7188Q2.38839 16.9141 2.63253 16.9482Q2.87667 16.9824 3.08175 16.8066Q3.6091 16.3672 3.87277 15.6836Q4.13644 15 4.13644 14.2578Q4.13644 13.584 3.98996 13.0615Q3.84347 12.5391 3.69699 11.9629Q3.5505 11.3867 3.5505 10.5469Q3.5505 9.11133 4.10226 7.84668Q4.65402 6.58203 5.62081 5.61035Q6.58761 4.63867 7.85714 4.08691Q9.12667 3.53516 10.5622 3.53516Q12.8767 3.53516 14.5808 4.71191Q16.2849 5.88867 17.2224 7.99316Q18.1599 10.0977 18.1696 12.8906Q18.1696 14.5215 17.945 15.6787Q17.7204 16.8359 17.447 17.5Q17.3493 17.7344 17.4275 17.9492Q17.5056 18.1641 17.6911 18.2617Q17.8962 18.3496 18.1355 18.2715Q18.3747 18.1934 18.4626 17.959Q18.7458 17.1777 19.0046 15.9082Q19.2634 14.6387 19.2634 12.8809Q19.2634 10.5469 18.6482 8.63281Q18.0329 6.71875 16.8903 5.33203Q15.7478 3.94531 14.1462 3.19336Q12.5446 2.44141 10.5622 2.44141Q8.90206 2.44141 7.43234 3.08105Q5.96261 3.7207 4.84445 4.83887Q3.72628 5.95703 3.09152 7.42188Q2.45675 8.88672 2.45675 10.5469Q2.45675 11.3477 2.60812 11.9922Q2.75949 12.6367 2.91085 13.1885Q3.06222 13.7402 3.07199 14.248Q3.07199 14.7461 2.89132 15.1953Q2.71066 15.6445 2.36886 15.9473Q2.19308 16.0938 2.16378 16.3184Q2.13449 16.543 2.25167 16.7188ZM4.55636 18.5352Q4.91769 18.3496 5.32785 17.915Q5.738 17.4805 6.07003 16.9385Q6.40206 16.3965 6.53878 15.8887Q6.59738 15.6836 6.50949 15.4736Q6.4216 15.2637 6.18722 15.1855Q5.98214 15.1172 5.78683 15.2246Q5.59152 15.332 5.51339 15.5664Q5.31808 16.2109 4.96164 16.6992Q4.60519 17.1875 4.06808 17.5586Q3.80441 17.7441 3.7507 17.9541Q3.69699 18.1641 3.77511 18.3301Q3.863 18.5156 4.07785 18.5938Q4.29269 18.6719 4.55636 18.5352ZM6.64621 13.2422Q6.46066 12.7441 6.23117 12.0996Q6.00167 11.4551 6.00167 10.6055Q6.00167 9.30664 6.61691 8.26172Q7.23214 7.2168 8.27706 6.60156Q9.32199 5.98633 10.6208 5.98633Q11.1189 5.98633 11.4411 6.03027Q11.7634 6.07422 12.0612 6.19141Q12.3591 6.30859 12.7985 6.51367Q13.0232 6.62109 13.2136 6.56738Q13.404 6.51367 13.4821 6.34766Q13.5993 6.14258 13.531 5.91797Q13.4626 5.69336 13.2185 5.54688Q12.7302 5.26367 12.0368 5.07324Q11.3435 4.88281 10.6208 4.88281Q9.41964 4.88281 8.3796 5.32227Q7.33956 5.76172 6.55831 6.54297Q5.77706 7.32422 5.33761 8.36426Q4.89816 9.4043 4.89816 10.6055Q4.89816 11.5332 5.10812 12.2852Q5.31808 13.0371 5.57199 13.6621Q5.67941 13.9062 5.88449 14.0039Q6.08956 14.1016 6.35324 13.9941Q6.56808 13.9062 6.64621 13.6914Q6.72433 13.4766 6.64621 13.2422ZM14.3318 7.82227Q15.0349 8.85742 15.3913 10.2686Q15.7478 11.6797 15.7478 13.4082Q15.7478 15.2539 15.2741 16.8896Q14.8005 18.5254 13.9997 19.5215Q13.8728 19.6973 13.863 19.9219Q13.8532 20.1465 14.0193 20.3027Q14.195 20.4688 14.4489 20.4541Q14.7028 20.4395 14.8493 20.2441Q15.738 19.0332 16.28 17.2168Q16.822 15.4004 16.822 13.3691Q16.822 11.8945 16.6267 10.7764Q16.4314 9.6582 16.0847 8.80371Q15.738 7.94922 15.2985 7.23633Q15.1423 7.00195 14.9128 6.93359Q14.6833 6.86523 14.4782 6.97266Q14.2634 7.08984 14.2146 7.3291Q14.1657 7.56836 14.3318 7.82227ZM6.60714 19.8242Q7.80831 18.8574 8.44796 17.3828Q9.08761 15.9082 9.07785 14.209Q9.06808 13.3496 8.91183 12.6855Q8.75558 12.0215 8.60421 11.4893Q8.45285 10.957 8.45285 10.4883Q8.45285 9.56055 9.04367 8.99902Q9.63449 8.4375 10.5915 8.4375Q11.5681 8.4375 12.1345 9.10156Q12.7009 9.76562 12.9548 10.874Q13.2087 11.9824 13.238 13.3008Q13.2868 14.8242 12.9694 16.1572Q12.6521 17.4902 12.0759 18.5254Q11.4997 19.5605 10.7771 20.1953Q10.6013 20.3418 10.5671 20.5469Q10.5329 20.752 10.6501 20.9375Q10.7868 21.1328 11.031 21.1621Q11.2751 21.1914 11.4704 21.0156Q12.2321 20.3223 12.8718 19.1309Q13.5114 17.9395 13.8923 16.4209Q14.2732 14.9023 14.2634 13.2227Q14.2634 11.582 13.9118 10.249Q13.5603 8.91602 12.7595 8.12988Q11.9587 7.34375 10.5915 7.34375Q9.68331 7.34375 8.95578 7.72461Q8.22824 8.10547 7.80343 8.78906Q7.37863 9.47266 7.37863 10.3906Q7.37863 10.9473 7.52511 11.5723Q7.6716 12.1973 7.81808 12.8662Q7.96456 13.5352 7.97433 14.209Q7.9841 15.6641 7.45675 16.9043Q6.92941 18.1445 5.92355 18.9648Q5.72824 19.1309 5.69406 19.3408Q5.65988 19.5508 5.78683 19.7363Q5.93331 19.9512 6.17257 19.9707Q6.41183 19.9902 6.60714 19.8242ZM8.8923 20.6055Q9.46847 20.1855 10.0935 19.3213Q10.7185 18.457 10.9919 17.5195Q11.0407 17.3535 10.987 17.1338Q10.9333 16.9141 10.6989 16.8359Q10.4548 16.748 10.2595 16.8457Q10.0642 16.9434 9.99581 17.1387Q9.62472 18.1152 9.17062 18.7305Q8.71652 19.3457 8.22824 19.7266Q8.04269 19.873 7.99874 20.0928Q7.9548 20.3125 8.08175 20.498Q8.19894 20.7031 8.44308 20.7324Q8.68722 20.7617 8.8923 20.6055ZM11.5485 15.2441Q11.6853 14.5801 11.695 13.8232Q11.7048 13.0664 11.5876 12.2852Q11.4704 11.5039 11.236 10.7715Q11.1384 10.498 10.9431 10.3906Q10.7478 10.2832 10.5232 10.3516Q10.3083 10.4199 10.2009 10.6104Q10.0935 10.8008 10.1716 11.0547Q10.3962 11.7578 10.4987 12.4561Q10.6013 13.1543 10.5964 13.8184Q10.5915 14.4824 10.4743 15.0977Q10.4255 15.3125 10.5232 15.498Q10.6208 15.6836 10.8747 15.7227Q11.1091 15.7715 11.3044 15.6396Q11.4997 15.5078 11.5485 15.2441Z" fill="rgba(0,0,0,0.85)"/>
 </g>
</svg>
